<svg width="25" height="25" viewBox="0 0 25 25" fill="none" xmlns="http://www.w3.org/2000/svg">
<path d="M11.5 2.08337C5.75623 2.08337 1.08331 6.75629 1.08331 12.5V16.8157C1.08331 17.8823 2.01769 18.75 3.16665 18.75H4.20831C4.48458 18.75 4.74953 18.6403 4.94488 18.4449C5.14023 18.2496 5.24998 17.9846 5.24998 17.7084V12.3511C5.24998 12.0748 5.14023 11.8099 4.94488 11.6145C4.74953 11.4192 4.48458 11.3094 4.20831 11.3094H3.26248C3.84165 7.27817 7.3104 4.16671 11.5 4.16671C15.6896 4.16671 19.1583 7.27817 19.7375 11.3094H18.7916C18.5154 11.3094 18.2504 11.4192 18.0551 11.6145C17.8597 11.8099 17.75 12.0748 17.75 12.3511V18.75C17.75 19.899 16.8156 20.8334 15.6666 20.8334H13.5833V19.7917H9.41665V22.9167H15.6666C17.9646 22.9167 19.8333 21.048 19.8333 18.75C20.9823 18.75 21.9166 17.8823 21.9166 16.8157V12.5C21.9166 6.75629 17.2437 2.08337 11.5 2.08337Z" fill="#696F79"/>
</svg>
