<svg width="25" height="25" viewBox="0 0 25 25" fill="none" xmlns="http://www.w3.org/2000/svg">
<path d="M11.4999 2.08337C5.75617 2.08337 1.08325 6.75629 1.08325 12.5V16.8157C1.08325 17.8823 2.01763 18.75 3.16659 18.75H4.20825C4.48452 18.75 4.74947 18.6403 4.94482 18.4449C5.14017 18.2496 5.24992 17.9846 5.24992 17.7084V12.3511C5.24992 12.0748 5.14017 11.8099 4.94482 11.6145C4.74947 11.4192 4.48452 11.3094 4.20825 11.3094H3.26242C3.84159 7.27817 7.31034 4.16671 11.4999 4.16671C15.6895 4.16671 19.1583 7.27817 19.7374 11.3094H18.7916C18.5153 11.3094 18.2504 11.4192 18.055 11.6145C17.8597 11.8099 17.7499 12.0748 17.7499 12.3511V18.75C17.7499 19.899 16.8155 20.8334 15.6666 20.8334H13.5833V19.7917H9.41658V22.9167H15.6666C17.9645 22.9167 19.8333 21.048 19.8333 18.75C20.9822 18.75 21.9166 17.8823 21.9166 16.8157V12.5C21.9166 6.75629 17.2437 2.08337 11.4999 2.08337Z" fill="#696F79"/>
</svg>
