<svg width="25" height="25" viewBox="0 0 25 25" fill="none" xmlns="http://www.w3.org/2000/svg">
<path d="M22.6562 21.5516L16.7562 15.6516C18.174 13.9495 18.8811 11.7663 18.7302 9.55617C18.5793 7.34607 17.5822 5.27921 15.9463 3.78556C14.3103 2.29191 12.1615 1.48646 9.94683 1.53678C7.73215 1.58711 5.62213 2.48932 4.05572 4.05573C2.4893 5.62215 1.58709 7.73217 1.53677 9.94684C1.48645 12.1615 2.29189 14.3103 3.78554 15.9463C5.27919 17.5822 7.34606 18.5793 9.55616 18.7302C11.7663 18.8811 13.9494 18.1741 15.6515 16.7562L21.5515 22.6562L22.6562 21.5516ZM3.12498 10.1562C3.12498 8.7656 3.53736 7.40618 4.30996 6.2499C5.08257 5.09361 6.1807 4.1924 7.46549 3.66022C8.75028 3.12804 10.164 2.9888 11.528 3.2601C12.8919 3.5314 14.1447 4.20107 15.1281 5.1844C16.1114 6.16774 16.7811 7.42059 17.0524 8.78452C17.3237 10.1484 17.1844 11.5622 16.6523 12.847C16.1201 14.1318 15.2189 15.2299 14.0626 16.0025C12.9063 16.7751 11.5469 17.1875 10.1562 17.1875C8.29206 17.1854 6.50484 16.444 5.18667 15.1258C3.86851 13.8076 3.12705 12.0204 3.12498 10.1562Z" fill="#8692A6"/>
</svg>
