<svg width="25" height="25" viewBox="0 0 25 25" fill="none" xmlns="http://www.w3.org/2000/svg">
<path d="M5.20841 2.08331H19.7917C20.068 2.08331 20.333 2.19306 20.5283 2.38841C20.7237 2.58376 20.8334 2.84871 20.8334 3.12498V21.875C20.8334 22.1512 20.7237 22.4162 20.5283 22.6115C20.333 22.8069 20.068 22.9166 19.7917 22.9166H5.20841C4.93215 22.9166 4.6672 22.8069 4.47185 22.6115C4.27649 22.4162 4.16675 22.1512 4.16675 21.875V3.12498C4.16675 2.84871 4.27649 2.58376 4.47185 2.38841C4.6672 2.19306 4.93215 2.08331 5.20841 2.08331ZM9.37508 11.4583V8.33331L4.16675 12.5L9.37508 16.6666V13.5416H15.6251V11.4583H9.37508Z" fill="#8692A6"/>
</svg>
