<svg width="25" height="25" viewBox="0 0 25 25" fill="none" xmlns="http://www.w3.org/2000/svg">
<path d="M5.20829 2.08331H19.7916C20.0679 2.08331 20.3328 2.19306 20.5282 2.38841C20.7235 2.58376 20.8333 2.84871 20.8333 3.12498V21.875C20.8333 22.1512 20.7235 22.4162 20.5282 22.6115C20.3328 22.8069 20.0679 22.9166 19.7916 22.9166H5.20829C4.93203 22.9166 4.66707 22.8069 4.47172 22.6115C4.27637 22.4162 4.16663 22.1512 4.16663 21.875V3.12498C4.16663 2.84871 4.27637 2.58376 4.47172 2.38841C4.66707 2.19306 4.93203 2.08331 5.20829 2.08331ZM9.37496 11.4583V8.33331L4.16663 12.5L9.37496 16.6666V13.5416H15.625V11.4583H9.37496Z" fill="#8692A6"/>
</svg>
